PathFileType	4	(X/Y/Z)	G:\Shared drives\HIT\Data\HapticPilot\Subject1\Edited\LHJC1.trc
DataRate	CameraRate	NumFrames	NumMarkers	Units	OrigDataRate	OrigDataStartFrame	OrigNumFrames
50.00	50.00	       7	38	mm	50.00	257	       684
Frame#	Time	r_knee			r_shank(antsup)			r_ankle			r_calc			r_5meta			r_toe			L_knee			L_shank(ant_sup)			L_ankle			L_calc			L_5meta			L_toe			r_mknee			r_mankle			L_mknee			L_mankle			r_sh2			r_sh3			r_sh4			L_sh2			L_sh3			r_thigh1			r_thigh2			r_thigh3			r_thigh4			r_thigh5			L_thigh1			L_thigh2			L_thigh3			L_thigh4			r.ASIS			r.PSIS			L.ASIS			L.PSIS			C7			R_Shoulder			L_Shoulder			Sternum			
		X1	Y1	Z1	X2	Y2	Z2	X3	Y3	Z3	X4	Y4	Z4	X5	Y5	Z5	X6	Y6	Z6	X7	Y7	Z7	X8	Y8	Z8	X9	Y9	Z9	X10	Y10	Z10	X11	Y11	Z11	X12	Y12	Z12	X13	Y13	Z13	X14	Y14	Z14	X15	Y15	Z15	X16	Y16	Z16	X17	Y17	Z17	X18	Y18	Z18	X19	Y19	Z19	X20	Y20	Z20	X21	Y21	Z21	X22	Y22	Z22	X23	Y23	Z23	X24	Y24	Z24	X25	Y25	Z25	X26	Y26	Z26	X27	Y27	Z27	X28	Y28	Z28	X29	Y29	Z29	X30	Y30	Z30	X31	Y31	Z31	X32	Y32	Z32	X33	Y33	Z33	X34	Y34	Z34	X35	Y35	Z35	X36	Y36	Z36	X37	Y37	Z37	X38	Y38	Z38	

257	5.120	785.62445	255.16266	570.10675	798.11487	253.32555	478.69116	710.79907	283.45313	111.66429	622.16333	333.29492	70.65930	817.90375	249.30550	39.21500	862.35339	309.74548	71.79989	764.23920	618.05072	605.27991	790.80145	636.79834	486.56339	696.78320	668.76166	147.64912	626.75470	615.61334	95.85656	808.31744	732.28571	81.34682	858.41089	675.41730	101.99662	785.74060	383.78461	557.16974	727.29919	378.85736	119.04974	799.62891	499.70190	577.39240	737.04370	581.93604	139.04980	784.61298	261.49600	359.63449	722.73523	242.23006	484.05502	702.35321	246.34758	369.68268	702.13416	640.66394	509.56241	685.65778	655.56110	388.70981	831.46820	231.41763	900.17078	843.88580	235.77057	785.89301	799.93152	226.65511	749.10339	720.32062	212.31062	883.17499	736.02539	230.58177	767.16644	828.39014	601.78223	882.11633	843.77649	618.37939	745.40466	711.94373	608.02539	870.81537	732.19629	611.56458	736.25494	845.79706	264.79453	1088.67712	652.31396	341.44333	1126.03113	835.79425	520.94836	1122.15955	653.65326	421.06427	1135.13977	734.04272	375.30573	1620.73108	781.90680	209.09416	1584.67810	796.07617	554.82367	1584.89514	864.07947	371.75043	1534.47571	
258	5.140	785.94531	254.38509	569.90552	798.59070	252.73347	478.47479	710.82892	283.34113	111.61394	622.19257	333.22659	70.64916	817.88739	249.25214	39.19411	862.37738	309.71988	71.79154	761.18231	630.89905	610.21857	787.00867	654.28094	492.23602	691.40063	696.84735	154.94374	621.76196	644.66010	101.70748	801.94385	763.83441	89.86295	852.68378	707.51233	108.76305	786.23492	383.08337	557.27820	727.25745	378.74863	119.13644	797.78821	514.27936	578.14569	732.52887	610.86591	142.94800	784.93231	260.95572	359.49310	723.18884	241.47574	483.88434	702.76868	245.84761	369.51846	698.35669	655.87573	515.63293	680.38647	674.59918	395.42880	831.49969	230.49835	900.10687	844.09216	234.95462	785.86865	800.33569	225.63118	748.95483	720.40222	210.81931	882.75757	736.32910	229.26440	766.85706	826.62067	605.81506	886.14410	841.86676	626.14136	750.08636	710.21173	611.28552	875.53430	729.84137	619.58551	741.32489	845.48816	263.22998	1088.39392	652.18353	339.80951	1125.77551	836.30408	519.91589	1123.25342	653.31006	419.44003	1135.26794	733.85193	374.10413	1620.76428	781.40015	207.81886	1585.00305	796.36768	553.51324	1584.82788	863.83447	370.23413	1534.56409	
259	5.160	786.14563	253.81334	569.73413	798.77966	252.26268	478.29562	710.82202	283.29001	111.59671	622.16376	333.19531	70.67159	817.90070	249.27147	39.21690	862.37274	309.73358	71.76498	758.17316	644.49475	616.33594	782.61322	673.38171	498.97278	685.67084	726.88074	164.10336	616.44012	675.74951	109.38280	794.77313	797.40314	100.87934	846.44965	741.15540	117.13222	786.58673	382.48965	557.37860	727.30035	378.66934	119.17068	795.54181	529.57141	579.91785	727.75562	641.98804	148.49477	785.16443	260.65762	359.35855	723.41083	240.97594	483.74805	702.90698	245.47302	369.43506	694.44641	672.27710	522.85992	677.08179	695.69110	403.52719	831.41138	229.35796	899.94482	844.01166	234.26694	785.58270	800.53870	224.81261	748.68591	720.47626	209.54918	882.30261	736.53802	228.12144	766.43628	825.17480	609.57404	890.83960	839.62781	634.97797	755.55994	708.52905	614.72290	880.74463	728.27203	628.37988	746.52893	845.33319	261.56436	1088.19104	651.87695	338.11014	1125.81152	836.15399	518.47308	1124.29407	653.25732	417.34180	1135.70288	733.63043	373.03253	1620.89185	781.03461	206.36676	1585.27112	796.61591	552.10040	1584.77124	863.65649	368.63870	1534.69214	
260	5.180	786.06110	253.17935	569.61493	798.81287	251.80898	478.17374	710.82928	283.32498	111.59949	622.14893	333.26300	70.64085	817.90997	249.26662	39.19904	862.36719	309.73016	71.77671	755.13562	658.50507	623.34821	778.55011	692.37445	506.92706	679.88202	758.24646	174.99599	611.26813	708.32318	118.56258	788.07111	831.94702	113.74510	840.39374	776.14722	127.49522	786.58624	381.96872	557.47052	727.29047	378.68958	119.19893	793.13898	545.20398	582.08722	722.73682	674.33099	155.63930	785.13275	260.45383	359.27103	723.87360	240.79300	483.67410	702.86023	245.22408	369.32938	690.50110	689.78308	531.24976	672.23657	717.48450	412.91595	831.32343	227.86882	899.59631	843.92676	233.29790	785.27087	800.34985	223.76042	748.25873	720.26141	208.00653	881.79901	736.30151	227.06712	766.00494	823.73688	613.30127	896.01556	837.46600	644.45886	761.71606	707.07703	618.36920	886.61865	725.72839	637.23004	753.29858	845.20190	259.80115	1088.02209	651.66302	336.09467	1126.08655	835.88715	516.88654	1125.43127	653.20306	415.17587	1136.56482	733.26697	371.79535	1621.06531	780.70770	204.97011	1585.61646	796.77020	550.58789	1584.75427	863.50586	366.85464	1534.96045	
261	5.200	785.78241	252.54601	569.48840	798.54803	251.33505	477.98773	710.80133	283.30637	111.54153	622.12354	333.28030	70.59714	817.89142	249.30182	39.23673	862.31128	309.77811	71.77115	751.76367	672.94629	631.17963	774.67383	711.76318	516.28058	673.33533	790.26257	187.79448	605.46112	742.48077	130.00826	781.35101	867.94055	129.16556	833.95123	812.20947	140.18294	786.22955	381.39709	557.58447	727.25470	378.66400	119.18786	789.32269	562.19916	584.54401	717.45496	708.13550	164.89825	784.99048	260.10806	359.16885	723.25732	240.12454	483.40408	702.62598	244.84297	369.09424	686.63678	707.61456	540.87866	667.94995	740.10706	424.19000	831.16992	226.11366	899.23914	843.44843	231.90999	784.76312	799.77936	222.72432	747.89972	719.68414	207.02467	881.41998	735.78204	226.16965	765.67310	822.22168	617.37177	901.75189	834.81580	654.28259	768.72504	705.15179	621.99933	893.30078	722.67133	646.26764	760.61975	845.08344	258.10495	1087.79199	651.58130	334.06348	1126.51697	835.99927	515.23181	1126.79456	653.15424	413.14294	1137.72266	733.12860	370.21646	1621.06311	780.49261	203.29677	1586.03430	797.10986	548.83801	1584.72583	863.29944	365.08521	1535.12085	
262	5.220	785.31409	251.89589	569.33368	798.23273	250.81541	477.81848	710.74823	283.19809	111.46381	622.10223	333.21893	70.55981	817.88019	249.28227	39.20362	862.29382	309.76022	71.78103	748.79352	687.79126	639.91168	770.63074	731.19409	527.01526	668.11359	823.71143	202.88968	599.79071	777.49084	143.10835	775.10168	903.94843	146.60049	827.68872	848.68018	155.19264	785.67218	380.72147	557.60889	727.18445	378.57999	119.18922	787.73676	578.85309	589.58582	712.07135	742.49194	176.37311	784.79236	259.62347	359.05945	722.92743	239.53380	483.24423	702.40680	244.37407	368.88327	682.81299	725.79010	551.79376	663.74677	763.42987	436.15802	830.10760	224.61827	898.89728	842.84308	230.68080	784.45483	798.90186	221.66853	747.64911	719.13531	206.11125	881.22845	735.01935	225.37991	765.54565	820.28467	621.66693	908.09296	831.65643	664.19897	776.68079	704.27734	625.28223	899.56305	720.16168	654.86298	768.57910	844.95428	256.46677	1087.44836	651.55768	332.15439	1126.89819	836.02551	513.63605	1128.26599	653.37909	410.97034	1138.95935	732.97095	368.47778	1621.35461	780.52448	201.47693	1586.27319	797.27026	547.02948	1584.80713	863.22626	363.12683	1535.36572	
263	5.240	784.76715	251.39903	569.25610	797.94348	250.35777	477.73679	710.69598	283.10120	111.38708	622.07953	333.20529	70.48846	817.88171	249.24715	39.22926	862.29907	309.75861	71.82999	744.43677	702.42755	651.17419	766.40906	750.57684	539.17487	662.53046	856.73035	219.75427	594.17719	812.69977	158.36031	767.73370	941.20251	167.13643	821.78705	884.94336	172.41998	785.34753	380.12051	557.68182	727.08954	378.47827	119.18796	785.14087	595.76166	595.37531	707.39679	777.37140	189.33421	784.60651	259.27515	358.97180	722.65460	238.95851	483.04980	702.23236	243.96976	368.74503	678.61438	743.72998	563.90472	658.75348	786.08160	450.25208	829.60376	223.47351	898.69415	842.18280	229.68629	784.26666	798.23798	220.76959	747.43768	718.66229	205.20686	881.09985	734.29443	224.62416	765.44318	818.23737	625.72766	915.07935	828.78802	674.07275	785.58368	703.58936	628.14746	903.94263	717.02802	663.61859	777.56342	844.87518	254.72768	1087.11218	651.46661	330.21329	1127.53442	836.09583	511.92184	1129.98596	653.43469	409.08322	1140.16895	732.78064	366.79752	1621.67163	780.38342	199.61185	1586.85986	797.46130	545.09222	1585.06372	863.12885	361.03940	1535.81152	
